<svg width="517" height="517" viewBox="0 0 517 517" fill="none" xmlns="http://www.w3.org/2000/svg">
<g filter="url(#filter0_d_873_10942)">
<path d="M422.269 230.5C422.269 320.52 348.964 393.496 258.538 393.496C168.112 393.496 94.8076 320.52 94.8076 230.5C94.8076 140.479 168.112 67.5032 258.538 67.5032C348.964 67.5032 422.269 140.479 422.269 230.5ZM169.624 230.5C169.624 279.386 209.432 319.015 258.538 319.015C307.644 319.015 347.453 279.386 347.453 230.5C347.453 181.614 307.644 141.984 258.538 141.984C209.432 141.984 169.624 181.614 169.624 230.5Z" fill="#F5F5F5"/>
</g>
<path d="M375.473 116.41C351.271 91.8267 319.873 75.5017 285.779 69.7749L273.331 143.217C291.846 146.327 308.897 155.193 322.04 168.543L375.473 116.41Z" fill="#FF9292"/>
<path d="M373.142 346.911C397.836 322.817 414.234 291.56 419.987 257.618L346.214 245.227C343.09 263.659 334.184 280.633 320.774 293.717L373.142 346.911Z" fill="#FF9292"/>
<path d="M141.603 344.589C165.805 369.173 197.203 385.498 231.298 391.225L243.745 317.782C225.23 314.672 208.179 305.807 195.036 292.457L141.603 344.589Z" fill="#FF9292"/>
<path d="M143.935 114.089C119.241 138.183 102.842 169.44 97.0896 203.382L170.863 215.773C173.987 197.341 182.892 180.367 196.302 167.283L143.935 114.089Z" fill="#FF9292"/>
<g style="mix-blend-mode:multiply">
<path d="M375.473 116.411C438.767 180.703 437.723 283.901 373.142 346.911C308.56 409.92 204.897 408.881 141.603 344.589C78.3096 280.298 79.3536 177.099 143.935 114.089C208.516 51.0796 312.18 52.1189 375.473 116.411ZM195.036 292.457C229.408 327.371 285.703 327.935 320.774 293.717C355.845 259.5 356.412 203.457 322.04 168.543C287.668 133.629 231.374 133.065 196.302 167.283C161.231 201.5 160.664 257.543 195.036 292.457Z" fill="#F5F5F5"/>
</g>
<g style="mix-blend-mode:soft-light" filter="url(#filter1_f_873_10942)">
<path d="M363.48 128.113C420.282 185.81 419.345 278.424 361.387 334.972C303.429 391.519 210.398 390.586 153.596 332.888C96.7944 275.191 97.7313 182.577 155.689 126.029C213.647 69.4821 306.678 70.4148 363.48 128.113ZM185.404 301.855C224.989 342.064 289.823 342.714 330.214 303.306C370.604 263.899 371.257 199.356 331.672 159.146C292.087 118.937 227.253 118.287 186.863 157.695C146.472 197.102 145.819 261.645 185.404 301.855Z" fill="#F5F5F5" fill-opacity="0.5"/>
</g>
<path d="M123.382 446C117.416 446 113.177 444.849 110.665 442.546C108.258 440.139 107.054 436.632 107.054 432.027C107.054 430.771 107.106 428.678 107.211 425.747C107.42 422.712 107.682 419.153 107.996 415.071C108.31 410.989 108.624 406.541 108.938 401.726C109.357 396.807 109.775 391.835 110.194 386.811C111.031 376.24 111.607 367.657 111.921 361.063C112.34 354.469 112.654 349.288 112.863 345.52C113.177 340.81 113.491 337.827 113.805 336.571C114.119 335.21 114.799 334.53 115.846 334.53C119.091 334.53 122.388 334.478 125.737 334.373C129.191 334.164 132.488 333.954 135.628 333.745C138.768 333.536 141.699 333.379 144.42 333.274C147.246 333.065 149.758 332.96 151.956 332.96C158.655 332.96 164.411 333.797 169.226 335.472C174.041 337.147 177.913 339.502 180.844 342.537C183.879 345.572 186.077 349.236 187.438 353.527C188.903 357.818 189.636 362.633 189.636 367.971C189.636 376.135 188.014 383.409 184.769 389.794C181.524 396.179 176.343 401.046 169.226 404.395L182.414 423.235C184.821 426.794 186.653 429.567 187.909 431.556C189.165 433.44 189.793 434.853 189.793 435.795C189.793 436.528 189.322 437.574 188.38 438.935C187.543 440.191 186.234 441.499 184.455 442.86C182.78 444.116 180.687 445.215 178.175 446.157C175.768 447.099 173.046 447.57 170.011 447.57C166.662 447.57 163.731 446.471 161.219 444.273C158.812 442.075 156.614 439.197 154.625 435.638C152.741 431.975 151.066 427.788 149.601 423.078C148.24 418.368 146.932 413.449 145.676 408.32C141.908 408.111 138.82 407.744 136.413 407.221C136.099 411.826 135.785 416.222 135.471 420.409C135.157 424.596 134.895 428.364 134.686 431.713C134.477 434.958 134.267 437.679 134.058 439.877C133.849 441.97 133.744 443.226 133.744 443.645C133.639 444.482 133.43 445.11 133.116 445.529C132.802 445.843 132.174 446 131.232 446H123.382ZM148.816 356.51C147.56 356.51 146.147 356.615 144.577 356.824C143.007 356.929 141.332 357.086 139.553 357.295C139.344 360.958 139.082 365.354 138.768 370.483C138.559 375.507 138.245 380.897 137.826 386.654C141.489 387.491 144.682 387.91 147.403 387.91C150.648 387.91 153.264 387.282 155.253 386.026C157.346 384.77 158.969 383.252 160.12 381.473C161.271 379.589 162.004 377.6 162.318 375.507C162.737 373.414 162.946 371.53 162.946 369.855C162.946 365.564 161.899 362.267 159.806 359.964C157.713 357.661 154.049 356.51 148.816 356.51ZM197.672 426.689C197.672 417.269 201.911 409.89 210.389 404.552C218.867 399.214 231.375 396.336 247.912 395.917C248.017 394.766 248.069 393.824 248.069 393.091C248.174 392.254 248.226 391.259 248.226 390.108C248.226 386.759 247.598 384.09 246.342 382.101C245.086 380.112 242.47 379.118 238.492 379.118C236.294 379.118 234.515 379.432 233.154 380.06C231.794 380.688 230.695 381.578 229.857 382.729C229.02 383.776 228.34 385.084 227.816 386.654C227.293 388.224 226.822 389.951 226.403 391.835C226.194 392.777 225.723 393.405 224.99 393.719C224.258 393.928 223.106 394.033 221.536 394.033C210.86 394.033 205.522 390.003 205.522 381.944C205.522 378.699 206.255 375.612 207.72 372.681C209.29 369.75 211.541 367.238 214.471 365.145C217.507 362.947 221.275 361.22 225.775 359.964C230.276 358.708 235.509 358.08 241.475 358.08C253.093 358.08 261.519 360.487 266.752 365.302C271.986 370.117 274.602 376.92 274.602 385.712C274.602 386.863 274.445 388.957 274.131 391.992C273.922 394.923 273.608 398.063 273.189 401.412C272.875 404.657 272.561 407.744 272.247 410.675C272.038 413.606 271.933 415.647 271.933 416.798C271.933 419.415 272.404 421.299 273.346 422.45C274.288 423.497 275.335 424.229 276.486 424.648C277.742 425.067 278.841 425.381 279.783 425.59C280.725 425.799 281.196 426.323 281.196 427.16C281.196 429.463 280.882 431.818 280.254 434.225C279.626 436.632 278.58 438.83 277.114 440.819C275.754 442.808 273.817 444.43 271.305 445.686C268.898 446.942 265.915 447.57 262.356 447.57C257.332 447.57 253.564 446.366 251.052 443.959C248.54 441.552 246.866 438.202 246.028 433.911C243.516 437.574 240.219 440.767 236.137 443.488C232.16 446.209 226.927 447.57 220.437 447.57C217.297 447.57 214.314 447.204 211.488 446.471C208.767 445.738 206.36 444.535 204.266 442.86C202.278 441.185 200.655 439.04 199.399 436.423C198.248 433.702 197.672 430.457 197.672 426.689ZM246.499 408.791C243.778 408.791 241.109 409 238.492 409.419C235.876 409.838 233.521 410.518 231.427 411.46C229.439 412.297 227.816 413.449 226.56 414.914C225.304 416.379 224.676 418.159 224.676 420.252C224.676 422.659 225.409 424.334 226.874 425.276C228.444 426.218 230.119 426.689 231.898 426.689C233.573 426.689 235.248 426.323 236.922 425.59C238.597 424.857 240.062 423.758 241.318 422.293C242.679 420.723 243.83 418.839 244.772 416.641C245.714 414.443 246.29 411.826 246.499 408.791ZM323.347 391.678C323.138 394.818 322.876 398.22 322.562 401.883C322.248 405.546 321.934 409.262 321.62 413.03C321.306 416.693 320.992 420.304 320.678 423.863C320.469 427.422 320.259 430.562 320.05 433.283C319.841 436.004 319.631 438.255 319.422 440.034C319.317 441.813 319.265 442.755 319.265 442.86C319.16 444.116 318.899 444.953 318.48 445.372C318.061 445.791 317.172 446 315.811 446H310.159C304.507 446 300.53 444.692 298.227 442.075C296.029 439.354 294.93 435.324 294.93 429.986C294.93 429.358 294.982 427.788 295.087 425.276C295.296 422.764 295.506 419.781 295.715 416.327C296.029 412.768 296.343 408.843 296.657 404.552C296.971 400.261 297.285 395.969 297.599 391.678H290.22C289.069 391.678 288.493 391.102 288.493 389.951C288.493 389.114 288.545 387.91 288.65 386.34C288.755 384.665 288.859 383.043 288.964 381.473C289.069 380.217 289.226 378.961 289.435 377.705C289.749 376.344 290.22 375.193 290.848 374.251C291.581 373.204 292.627 372.367 293.988 371.739C295.349 371.006 297.128 370.588 299.326 370.483L299.954 364.203C300.582 357.4 301.838 351.695 303.722 347.09C305.711 342.485 308.275 338.821 311.415 336.1C314.555 333.274 318.271 331.285 322.562 330.134C326.958 328.878 331.825 328.25 337.163 328.25C342.396 328.25 346.845 328.721 350.508 329.663C354.276 330.605 357.311 331.913 359.614 333.588C361.917 335.263 363.591 337.251 364.638 339.554C365.685 341.857 366.208 344.316 366.208 346.933C366.208 352.376 364.481 356.248 361.027 358.551C357.678 360.854 353.125 362.005 347.368 362.005C345.798 362.005 344.699 361.9 344.071 361.691C343.548 361.377 343.286 360.749 343.286 359.807C343.286 356.353 342.972 353.632 342.344 351.643C341.716 349.654 339.989 348.66 337.163 348.66C335.07 348.66 333.29 349.288 331.825 350.544C330.36 351.8 329.156 353.475 328.214 355.568C327.272 357.557 326.539 359.859 326.016 362.476C325.597 365.093 325.231 367.762 324.917 370.483H342.972C344.647 370.483 345.484 371.216 345.484 372.681L344.856 381.159C344.647 384.299 343.757 386.863 342.187 388.852C340.722 390.736 337.634 391.678 332.924 391.678H323.347ZM395.437 380.845C395.123 384.822 394.757 388.747 394.338 392.62C394.024 396.493 393.71 400.156 393.396 403.61C393.082 407.064 392.82 410.152 392.611 412.873C392.506 415.594 392.454 417.688 392.454 419.153C392.454 421.874 392.768 423.706 393.396 424.648C394.024 425.485 395.071 425.904 396.536 425.904C397.687 425.904 398.682 425.695 399.519 425.276C400.356 424.857 401.141 424.386 401.874 423.863C402.607 423.34 403.235 422.869 403.758 422.45C404.386 422.031 405.066 421.822 405.799 421.822C406.532 421.822 407.212 422.241 407.84 423.078C408.468 423.915 408.782 425.852 408.782 428.887C408.782 434.644 407.212 439.197 404.072 442.546C400.932 445.895 395.542 447.57 387.901 447.57C380.365 447.57 374.765 445.843 371.102 442.389C367.543 438.83 365.764 433.44 365.764 426.218C365.764 424.648 365.816 422.816 365.921 420.723C366.13 418.525 366.392 415.699 366.706 412.245C367.02 408.791 367.386 404.552 367.805 399.528C368.328 394.504 368.852 388.276 369.375 380.845H361.054C360.217 380.845 359.693 380.688 359.484 380.374C359.379 379.955 359.327 379.38 359.327 378.647L359.798 370.64C359.903 369.279 360.06 367.971 360.269 366.715C360.583 365.354 361.106 364.151 361.839 363.104C362.676 362.057 363.828 361.22 365.293 360.592C366.758 359.964 368.695 359.65 371.102 359.65C371.835 357.766 372.672 355.516 373.614 352.899C374.556 350.282 375.498 347.77 376.44 345.363C377.382 342.851 378.272 340.758 379.109 339.083C380.051 337.408 380.888 336.571 381.621 336.571H386.174C390.57 336.571 393.605 337.932 395.28 340.653C396.955 343.374 397.792 346.619 397.792 350.387C397.792 352.48 397.635 355.568 397.321 359.65H413.806C415.481 359.65 416.318 360.383 416.318 361.848L415.69 370.326C415.481 373.466 414.591 376.03 413.021 378.019C411.556 379.903 408.468 380.845 403.758 380.845H395.437Z" fill="#1E2F97"/>
<path d="M110.665 442.546L102.18 451.031L102.364 451.216L102.556 451.392L110.665 442.546ZM107.211 425.747L95.2393 424.921L95.2256 425.12L95.2185 425.319L107.211 425.747ZM107.996 415.071L119.961 415.991V415.991L107.996 415.071ZM108.938 401.726L96.9811 400.708L96.971 400.827L96.9633 400.945L108.938 401.726ZM110.194 386.811L122.152 387.808L122.154 387.783L122.156 387.759L110.194 386.811ZM111.921 361.063L99.945 360.303L99.939 360.397L99.9345 360.492L111.921 361.063ZM112.863 345.52L100.889 344.722L100.885 344.788L100.881 344.854L112.863 345.52ZM113.805 336.571L125.447 339.481L125.473 339.376L125.498 339.269L113.805 336.571ZM125.737 334.373L126.112 346.367L126.287 346.362L126.463 346.351L125.737 334.373ZM144.42 333.274L144.881 345.265L145.094 345.257L145.306 345.241L144.42 333.274ZM169.226 335.472L173.168 324.138H173.168L169.226 335.472ZM180.844 342.537L172.211 350.872L172.284 350.948L172.359 351.022L180.844 342.537ZM187.438 353.527L175.999 357.154L176.039 357.28L176.082 357.405L187.438 353.527ZM184.769 389.794L174.071 384.357H174.071L184.769 389.794ZM169.226 404.395L164.116 393.537L151.224 399.604L159.395 411.277L169.226 404.395ZM182.414 423.235L192.353 416.511L192.3 416.432L192.245 416.353L182.414 423.235ZM187.909 431.556L177.763 437.964L177.842 438.089L177.924 438.212L187.909 431.556ZM188.38 438.935L178.514 432.104L178.454 432.191L178.395 432.279L188.38 438.935ZM184.455 442.86L191.655 452.46L191.7 452.426L191.744 452.392L184.455 442.86ZM178.175 446.157L173.961 434.921L173.882 434.951L173.802 434.982L178.175 446.157ZM161.219 444.273L153.128 453.135L153.221 453.22L153.317 453.304L161.219 444.273ZM154.625 435.638L143.953 441.126L144.048 441.311L144.15 441.492L154.625 435.638ZM149.601 423.078L138.072 426.408L138.106 426.526L138.143 426.643L149.601 423.078ZM145.676 408.32L157.331 405.466L155.217 396.832L146.342 396.338L145.676 408.32ZM136.413 407.221L138.962 395.495L125.386 392.544L124.441 406.405L136.413 407.221ZM135.471 420.409L123.504 419.512L135.471 420.409ZM134.686 431.713L146.661 432.486L146.662 432.474L146.663 432.462L134.686 431.713ZM134.058 439.877L145.998 441.071L146.001 441.043L146.004 441.015L134.058 439.877ZM133.744 443.645L145.651 445.133L145.744 444.392V443.645H133.744ZM133.116 445.529L141.601 454.014L142.204 453.411L142.716 452.729L133.116 445.529ZM144.577 356.824L145.375 368.797L145.77 368.771L146.163 368.719L144.577 356.824ZM139.553 357.295L138.151 345.377L128.147 346.554L127.572 356.61L139.553 357.295ZM138.768 370.483L126.79 369.75L126.783 369.866L126.778 369.983L138.768 370.483ZM137.826 386.654L125.857 385.784L125.11 396.057L135.152 398.352L137.826 386.654ZM155.253 386.026L149.079 375.736L148.961 375.807L148.845 375.88L155.253 386.026ZM160.12 381.473L170.195 387.992L170.279 387.862L170.359 387.73L160.12 381.473ZM162.318 375.507L150.551 373.154L150.494 373.439L150.451 373.727L162.318 375.507ZM159.806 359.964L168.685 351.892V351.892L159.806 359.964ZM123.382 434C121.109 434 119.676 433.774 118.873 433.556C118.085 433.342 118.268 433.237 118.774 433.7L102.556 451.392C108.436 456.781 116.473 458 123.382 458V434ZM119.15 434.061C119.35 434.261 119.369 434.396 119.306 434.215C119.225 433.977 119.054 433.312 119.054 432.027H95.0539C95.0539 438.661 96.8197 445.671 102.18 451.031L119.15 434.061ZM119.054 432.027C119.054 431.005 119.099 429.1 119.203 426.175L95.2185 425.319C95.1137 428.255 95.0539 430.537 95.0539 432.027H119.054ZM119.182 426.573C119.389 423.577 119.648 420.052 119.961 415.991L96.0312 414.151C95.7156 418.254 95.4514 421.846 95.2393 424.921L119.182 426.573ZM119.961 415.991C120.279 411.856 120.596 407.36 120.912 402.507L96.9633 400.945C96.6518 405.721 96.3411 410.122 96.0312 414.151L119.961 415.991ZM120.895 402.744C121.314 397.817 121.733 392.838 122.152 387.808L98.2353 385.814C97.8172 390.832 97.3992 395.796 96.9811 400.708L120.895 402.744ZM122.156 387.759C122.999 377.127 123.585 368.405 123.907 361.634L99.9345 360.492C99.6289 366.909 99.0639 375.352 98.2313 385.863L122.156 387.759ZM123.897 361.823C124.316 355.217 124.632 350 124.844 346.186L100.881 344.854C100.675 348.576 100.363 353.721 99.945 360.303L123.897 361.823ZM124.836 346.318C124.988 344.04 125.133 342.285 125.268 341.006C125.335 340.368 125.394 339.907 125.44 339.595C125.493 339.238 125.504 339.251 125.447 339.481L102.163 333.661C101.534 336.177 101.181 340.347 100.889 344.722L124.836 346.318ZM125.498 339.269C125.364 339.846 124.85 341.712 123.036 343.526C120.917 345.645 118.197 346.53 115.846 346.53V322.53C112.448 322.53 108.865 323.755 106.065 326.555C103.571 329.049 102.559 331.935 102.112 333.873L125.498 339.269ZM115.846 346.53C119.219 346.53 122.642 346.476 126.112 346.367L125.362 322.379C122.134 322.48 118.962 322.53 115.846 322.53V346.53ZM126.463 346.351C129.939 346.14 133.26 345.93 136.426 345.718L134.83 321.772C131.716 321.979 128.443 322.187 125.011 322.395L126.463 346.351ZM136.426 345.718C139.471 345.515 142.288 345.365 144.881 345.265L143.959 321.283C141.109 321.392 138.065 321.556 134.83 321.772L136.426 345.718ZM145.306 345.241C147.917 345.048 150.124 344.96 151.956 344.96V320.96C149.392 320.96 146.575 321.081 143.533 321.307L145.306 345.241ZM151.956 344.96C157.71 344.96 162.064 345.686 165.284 346.806L173.168 324.138C166.758 321.909 159.599 320.96 151.956 320.96V344.96ZM165.284 346.806C168.687 347.99 170.832 349.444 172.211 350.872L189.477 334.202C184.995 329.56 179.394 326.304 173.168 324.138L165.284 346.806ZM172.359 351.022C173.968 352.631 175.19 354.603 175.999 357.154L198.877 349.9C196.964 343.868 193.791 338.513 189.329 334.052L172.359 351.022ZM176.082 357.405C177.053 360.249 177.636 363.724 177.636 367.971H201.636C201.636 361.542 200.754 355.388 198.794 349.649L176.082 357.405ZM177.636 367.971C177.636 374.512 176.347 379.879 174.071 384.357L195.467 395.231C199.68 386.939 201.636 377.758 201.636 367.971H177.636ZM174.071 384.357C172.155 388.128 169.072 391.205 164.116 393.537L174.335 415.253C183.615 410.886 190.893 404.23 195.467 395.231L174.071 384.357ZM159.395 411.277L172.583 430.117L192.245 416.353L179.057 397.513L159.395 411.277ZM172.474 429.959C174.859 433.483 176.608 436.135 177.763 437.964L198.055 425.148C196.698 423 194.784 420.104 192.353 416.511L172.474 429.959ZM177.924 438.212C178.332 438.823 178.413 439.03 178.356 438.902C178.322 438.825 178.201 438.544 178.08 438.092C177.964 437.656 177.793 436.857 177.793 435.795H201.793C201.793 432.905 200.9 430.533 200.288 429.155C199.603 427.615 198.742 426.173 197.893 424.9L177.924 438.212ZM177.793 435.795C177.793 434.717 177.962 433.869 178.104 433.333C178.248 432.788 178.408 432.403 178.497 432.205C178.661 431.841 178.734 431.787 178.514 432.104L198.246 445.766C198.968 444.723 199.748 443.465 200.383 442.054C200.962 440.766 201.793 438.548 201.793 435.795H177.793ZM178.395 432.279C178.5 432.122 178.501 432.158 178.285 432.373C178.075 432.584 177.718 432.905 177.165 433.328L191.744 452.392C194.116 450.579 196.53 448.343 198.365 445.591L178.395 432.279ZM177.255 433.26C176.708 433.671 175.689 434.273 173.961 434.921L182.388 457.393C185.684 456.157 188.853 454.561 191.655 452.46L177.255 433.26ZM173.802 434.982C173.008 435.293 171.806 435.57 170.011 435.57V459.57C174.287 459.57 178.527 458.905 182.548 457.332L173.802 434.982ZM170.011 435.57C169.674 435.57 169.54 435.52 169.514 435.51C169.489 435.5 169.363 435.454 169.121 435.242L153.317 453.304C158.025 457.423 163.766 459.57 170.011 459.57V435.57ZM169.31 435.411C168.058 434.268 166.611 432.488 165.1 429.784L144.15 441.492C146.616 445.905 149.566 449.882 153.128 453.135L169.31 435.411ZM165.296 430.15C163.785 427.21 162.357 423.686 161.059 419.513L138.143 426.643C139.775 431.89 141.697 436.739 143.953 441.126L165.296 430.15ZM161.129 419.748C159.818 415.207 158.551 410.447 157.331 405.466L134.02 411.174C135.312 416.451 136.663 421.529 138.072 426.408L161.129 419.748ZM146.342 396.338C142.912 396.148 140.515 395.832 138.962 395.495L133.864 418.947C137.125 419.656 140.904 420.073 145.01 420.302L146.342 396.338ZM124.441 406.405C124.128 410.986 123.816 415.354 123.504 419.512L147.437 421.306C147.753 417.09 148.069 412.667 148.385 408.037L124.441 406.405ZM123.504 419.512C123.188 423.736 122.922 427.555 122.709 430.964L146.663 432.462C146.868 429.172 147.126 425.455 147.437 421.306L123.504 419.512ZM122.711 430.94C122.506 434.114 122.306 436.705 122.112 438.739L146.004 441.015C146.229 438.653 146.447 435.801 146.661 432.486L122.711 430.94ZM122.117 438.683C121.939 440.465 121.744 442.472 121.744 443.645H145.744C145.744 443.929 145.73 444.077 145.74 443.923C145.746 443.826 145.759 443.653 145.781 443.386C145.825 442.852 145.897 442.089 145.998 441.071L122.117 438.683ZM121.837 442.157C121.857 441.993 121.922 441.556 122.124 440.949C122.324 440.349 122.725 439.383 123.516 438.329L142.716 452.729C144.828 449.913 145.43 446.903 145.651 445.133L121.837 442.157ZM124.631 437.044C126.56 435.114 128.61 434.463 129.499 434.241C130.461 434 131.124 434 131.232 434V458C132.282 458 133.73 457.921 135.32 457.524C136.837 457.145 139.358 456.258 141.601 454.014L124.631 437.044ZM131.232 434H123.382V458H131.232V434ZM148.816 344.51C146.914 344.51 144.958 344.667 142.991 344.929L146.163 368.719C147.336 368.562 148.206 368.51 148.816 368.51V344.51ZM143.779 344.851C141.982 344.97 140.104 345.147 138.151 345.377L140.955 369.213C142.56 369.024 144.032 368.887 145.375 368.797L143.779 344.851ZM127.572 356.61C127.364 360.253 127.104 364.631 126.79 369.75L150.745 371.216C151.06 366.077 151.323 361.664 151.533 357.98L127.572 356.61ZM126.778 369.983C126.575 374.867 126.268 380.133 125.857 385.784L149.794 387.524C150.221 381.662 150.542 376.147 150.757 370.983L126.778 369.983ZM135.152 398.352C139.387 399.32 143.514 399.91 147.403 399.91V375.91C145.849 375.91 143.592 375.662 140.5 374.956L135.152 398.352ZM147.403 399.91C152.087 399.91 157.157 399.016 161.661 396.172L148.845 375.88C149.109 375.713 149.21 375.72 148.998 375.77C148.772 375.825 148.268 375.91 147.403 375.91V399.91ZM161.427 396.316C164.852 394.261 167.907 391.528 170.195 387.992L150.045 374.954C150.03 374.977 149.84 375.279 149.079 375.736L161.427 396.316ZM170.359 387.73C172.31 384.538 173.623 381.035 174.185 377.287L150.451 373.727C150.385 374.166 150.232 374.64 149.88 375.216L170.359 387.73ZM174.085 377.86C174.618 375.192 174.946 372.501 174.946 369.855H150.946C150.946 370.559 150.855 371.635 150.551 373.154L174.085 377.86ZM174.946 369.855C174.946 363.717 173.439 357.122 168.685 351.892L150.927 368.036C150.687 367.772 150.664 367.608 150.723 367.795C150.797 368.026 150.946 368.658 150.946 369.855H174.946ZM168.685 351.892C163.169 345.824 155.227 344.51 148.816 344.51V368.51C150.623 368.51 151.559 368.717 151.89 368.821C152.165 368.908 151.609 368.787 150.927 368.036L168.685 351.892ZM210.389 404.552L216.783 414.707L216.783 414.707L210.389 404.552ZM247.912 395.917L248.216 407.913L258.896 407.643L259.863 397.003L247.912 395.917ZM248.069 393.091L236.162 391.603L236.069 392.344V393.091H248.069ZM246.342 382.101L236.196 388.509L246.342 382.101ZM233.154 380.06L238.183 390.956L238.183 390.956L233.154 380.06ZM229.857 382.729L239.228 390.225L239.4 390.01L239.562 389.787L229.857 382.729ZM227.816 386.654L216.432 382.859L227.816 386.654ZM226.403 391.835L214.689 389.232L226.403 391.835ZM224.99 393.719L228.287 405.257L229.018 405.048L229.717 404.749L224.99 393.719ZM207.72 372.681L197.143 367.014L197.063 367.163L196.987 367.314L207.72 372.681ZM214.471 365.145L221.446 374.91L221.478 374.887L221.509 374.864L214.471 365.145ZM225.775 359.964L222.55 348.406L225.775 359.964ZM266.752 365.302L258.628 374.133V374.133L266.752 365.302ZM274.131 391.992L262.195 390.757L262.175 390.947L262.162 391.137L274.131 391.992ZM273.189 401.412L261.282 399.924L261.261 400.09L261.245 400.256L273.189 401.412ZM272.247 410.675L260.316 409.397L260.293 409.608L260.278 409.82L272.247 410.675ZM273.346 422.45L264.059 430.049L264.238 430.268L264.427 430.478L273.346 422.45ZM276.486 424.648L272.385 435.926L272.538 435.981L272.692 436.032L276.486 424.648ZM279.783 425.59L282.386 413.876L279.783 425.59ZM280.254 434.225L268.643 431.196V431.196L280.254 434.225ZM277.114 440.819L267.454 433.701L267.329 433.87L267.211 434.043L277.114 440.819ZM271.305 445.686L265.939 434.953L265.846 434.999L265.755 435.047L271.305 445.686ZM251.052 443.959L242.749 452.623L251.052 443.959ZM246.028 433.911L257.806 431.613L252.323 403.512L236.132 427.125L246.028 433.911ZM236.137 443.488L229.481 433.503L229.421 433.543L229.361 433.584L236.137 443.488ZM211.488 446.471L208.369 458.058L208.423 458.073L208.477 458.087L211.488 446.471ZM204.266 442.86L196.537 452.039L196.652 452.136L196.77 452.23L204.266 442.86ZM199.399 436.423L188.348 441.099L188.458 441.36L188.581 441.616L199.399 436.423ZM246.499 408.791L258.471 409.617L259.355 396.791H246.499V408.791ZM238.492 409.419L240.388 421.268H240.388L238.492 409.419ZM231.427 411.46L236.084 422.52L236.219 422.463L236.352 422.403L231.427 411.46ZM226.56 414.914L217.449 407.104V407.105L226.56 414.914ZM226.874 425.276L220.385 435.37L220.541 435.47L220.7 435.566L226.874 425.276ZM236.922 425.59L232.112 414.596L236.922 425.59ZM241.318 422.293L232.25 414.434L232.229 414.459L232.207 414.484L241.318 422.293ZM209.672 426.689C209.672 421.698 211.527 418.016 216.783 414.707L203.996 394.397C192.295 401.764 185.672 412.84 185.672 426.689H209.672ZM216.783 414.707C222.604 411.042 232.583 408.309 248.216 407.913L247.609 383.921C230.167 384.362 215.131 387.386 203.996 394.397L216.783 414.707ZM259.863 397.003C259.984 395.671 260.069 394.331 260.069 393.091H236.069C236.069 393.316 236.05 393.86 235.962 394.831L259.863 397.003ZM259.977 394.579C260.161 393.107 260.226 391.591 260.226 390.108H236.226C236.226 390.927 236.187 391.4 236.162 391.603L259.977 394.579ZM260.226 390.108C260.226 385.406 259.366 380.249 256.488 375.693L236.196 388.509C236.006 388.208 236.016 388.094 236.074 388.343C236.136 388.604 236.226 389.163 236.226 390.108H260.226ZM256.488 375.693C251.841 368.335 243.7 367.118 238.492 367.118V391.118C239.588 391.118 239.671 391.27 239.175 391.081C238.887 390.972 238.393 390.742 237.822 390.303C237.235 389.85 236.664 389.249 236.196 388.509L256.488 375.693ZM238.492 367.118C235.302 367.118 231.622 367.551 228.126 369.164L238.183 390.956C237.966 391.056 237.8 391.112 237.701 391.142C237.604 391.171 237.564 391.176 237.595 391.171C237.625 391.166 237.713 391.152 237.867 391.14C238.02 391.128 238.227 391.118 238.492 391.118V367.118ZM228.126 369.164C225.006 370.604 222.259 372.774 220.152 375.671L239.562 389.787C239.369 390.053 239.13 390.306 238.86 390.525C238.592 390.742 238.351 390.878 238.183 390.956L228.126 369.164ZM220.487 375.233C218.585 377.61 217.302 380.25 216.432 382.859L239.201 390.449C239.286 390.191 239.35 390.062 239.366 390.031C239.381 390.002 239.343 390.081 239.228 390.225L220.487 375.233ZM216.432 382.859C215.759 384.878 215.183 387.01 214.689 389.232L238.118 394.438C238.461 392.892 238.827 391.57 239.201 390.449L216.432 382.859ZM214.689 389.232C214.872 388.41 215.299 387.139 216.293 385.812C217.339 384.418 218.729 383.347 220.263 382.689L229.717 404.749C234.767 402.585 237.27 398.253 238.118 394.438L214.689 389.232ZM221.694 382.181C221.872 382.13 222.02 382.094 222.132 382.07C222.244 382.045 222.331 382.029 222.39 382.02C222.501 382.001 222.541 381.999 222.491 382.004C222.444 382.008 222.341 382.016 222.174 382.022C222.009 382.029 221.798 382.033 221.536 382.033V406.033C223.303 406.033 225.86 405.951 228.287 405.257L221.694 382.181ZM221.536 382.033C219.583 382.033 218.271 381.845 217.459 381.64C216.66 381.439 216.546 381.275 216.756 381.433C217.032 381.642 217.332 382.003 217.501 382.386C217.639 382.698 217.522 382.648 217.522 381.944H193.522C193.522 388.872 195.994 395.831 202.296 400.588C207.962 404.866 215.032 406.033 221.536 406.033V382.033ZM217.522 381.944C217.522 380.581 217.813 379.329 218.453 378.048L196.987 367.314C194.697 371.894 193.522 376.817 193.522 381.944H217.522ZM218.298 378.348C218.927 377.174 219.888 376.023 221.446 374.91L207.496 355.38C203.193 358.454 199.654 362.327 197.143 367.014L218.298 378.348ZM221.509 374.864C223.148 373.678 225.545 372.487 229.001 371.522L222.55 348.406C217.004 349.953 211.865 352.216 207.433 355.426L221.509 374.864ZM229.001 371.522C232.208 370.627 236.314 370.08 241.475 370.08V346.08C234.704 346.08 228.344 346.789 222.55 348.406L229.001 371.522ZM241.475 370.08C251.881 370.08 256.648 372.312 258.628 374.133L274.877 356.471C266.389 348.662 254.306 346.08 241.475 346.08V370.08ZM258.628 374.133C260.827 376.156 262.602 379.424 262.602 385.712H286.602C286.602 374.416 283.145 364.077 274.877 356.471L258.628 374.133ZM262.602 385.712C262.602 386.162 262.514 387.677 262.195 390.757L286.068 393.227C286.377 390.237 286.602 387.565 286.602 385.712H262.602ZM262.162 391.137C261.97 393.828 261.678 396.755 261.282 399.924L285.097 402.9C285.538 399.371 285.874 396.018 286.101 392.847L262.162 391.137ZM261.245 400.256C260.935 403.464 260.625 406.511 260.316 409.397L284.179 411.953C284.498 408.978 284.816 405.849 285.134 402.568L261.245 400.256ZM260.278 409.82C260.07 412.732 259.933 415.166 259.933 416.798H283.933C283.933 416.127 284.006 414.479 284.217 411.53L260.278 409.82ZM259.933 416.798C259.933 420.297 260.456 425.645 264.059 430.049L282.634 414.851C283.571 415.997 283.86 416.991 283.928 417.263C283.997 417.537 283.933 417.441 283.933 416.798H259.933ZM264.427 430.478C266.486 432.766 269.126 434.74 272.385 435.926L280.587 413.37C281.544 413.718 282.09 414.227 282.266 414.422L264.427 430.478ZM272.692 436.032C274.206 436.537 275.719 436.98 277.18 437.304L282.386 413.876C281.964 413.782 281.278 413.596 280.281 413.264L272.692 436.032ZM277.18 437.304C276.097 437.063 273.876 436.337 271.924 434.167C269.812 431.821 269.196 429.113 269.196 427.16H293.196C293.196 424.37 292.345 420.981 289.763 418.112C287.339 415.419 284.412 414.326 282.386 413.876L277.18 437.304ZM269.196 427.16C269.196 428.362 269.034 429.699 268.643 431.196L291.866 437.254C292.731 433.937 293.196 430.563 293.196 427.16H269.196ZM268.643 431.196C268.397 432.139 268.008 432.948 267.454 433.701L286.775 447.937C289.151 444.713 290.856 441.125 291.866 437.254L268.643 431.196ZM267.211 434.043C267.179 434.089 266.931 434.457 265.939 434.953L276.672 456.419C280.704 454.403 284.328 451.527 287.018 447.595L267.211 434.043ZM265.755 435.047C265.51 435.175 264.561 435.57 262.356 435.57V459.57C267.269 459.57 272.286 458.709 276.856 456.325L265.755 435.047ZM262.356 435.57C259.057 435.57 258.809 434.772 259.355 435.295L242.749 452.623C248.32 457.961 255.607 459.57 262.356 459.57V435.57ZM259.355 435.295C259.042 434.995 258.292 434.102 257.806 431.613L234.25 436.209C235.439 442.303 238.038 448.108 242.749 452.623L259.355 435.295ZM236.132 427.125C234.572 429.399 232.422 431.543 229.481 433.503L242.794 453.473C248.017 449.991 252.461 445.749 255.925 440.697L236.132 427.125ZM229.361 433.584C227.964 434.54 225.329 435.57 220.437 435.57V459.57C228.524 459.57 236.356 457.878 242.914 453.392L229.361 433.584ZM220.437 435.57C218.237 435.57 216.271 435.314 214.5 434.855L208.477 458.087C212.357 459.093 216.357 459.57 220.437 459.57V435.57ZM214.608 434.884C213.399 434.558 212.5 434.079 211.763 433.49L196.77 452.23C200.22 454.99 204.135 456.918 208.369 458.058L214.608 434.884ZM211.996 433.681C211.451 433.223 210.824 432.494 210.218 431.23L188.581 441.616C190.487 445.586 193.104 449.148 196.537 452.039L211.996 433.681ZM210.451 431.747C210.072 430.852 209.672 429.275 209.672 426.689H185.672C185.672 431.639 186.424 436.552 188.348 441.099L210.451 431.747ZM246.499 396.791C243.16 396.791 239.857 397.048 236.596 397.57L240.388 421.268C242.361 420.953 244.396 420.791 246.499 420.791V396.791ZM236.596 397.57C233.092 398.13 229.697 399.08 226.503 400.517L236.352 422.403C237.345 421.956 238.659 421.545 240.388 421.268L236.596 397.57ZM226.771 400.4C223.27 401.874 220.054 404.065 217.449 407.104L235.671 422.723C235.641 422.758 235.628 422.763 235.664 422.738C235.704 422.709 235.829 422.627 236.084 422.52L226.771 400.4ZM217.449 407.105C214.166 410.935 212.676 415.556 212.676 420.252H236.676C236.676 420.418 236.649 420.816 236.463 421.341C236.273 421.881 235.985 422.357 235.671 422.723L217.449 407.105ZM212.676 420.252C212.676 425.026 214.255 431.429 220.385 435.37L233.363 415.182C234.721 416.055 235.687 417.287 236.22 418.504C236.46 419.053 236.572 419.506 236.625 419.8C236.651 419.948 236.664 420.062 236.67 420.135C236.676 420.209 236.676 420.25 236.676 420.252H212.676ZM220.7 435.566C224.079 437.593 227.879 438.689 231.898 438.689V414.689C232.082 414.689 232.313 414.715 232.557 414.784C232.799 414.852 232.967 414.937 233.048 414.986L220.7 435.566ZM231.898 438.689C235.375 438.689 238.681 437.919 241.732 436.584L232.112 414.596C231.95 414.667 231.864 414.688 231.846 414.691C231.831 414.695 231.853 414.689 231.898 414.689V438.689ZM241.732 436.584C245.154 435.087 248.065 432.861 250.429 430.102L232.207 414.484C232.162 414.537 232.128 414.571 232.107 414.59C232.097 414.6 232.09 414.606 232.085 414.61C232.08 414.614 232.078 414.616 232.077 414.616C232.077 414.616 232.079 414.615 232.081 414.613C232.084 414.611 232.088 414.609 232.093 414.606C232.102 414.601 232.11 414.597 232.112 414.596L241.732 436.584ZM250.387 430.152C252.671 427.516 254.444 424.537 255.802 421.368L233.743 411.914C233.217 413.141 232.687 413.93 232.25 414.434L250.387 430.152ZM255.802 421.368C257.397 417.647 258.193 413.647 258.471 409.617L234.528 407.965C234.387 410.005 234.032 411.239 233.743 411.914L255.802 421.368ZM323.347 391.678V379.678H312.121L311.374 390.88L323.347 391.678ZM322.562 401.883L334.518 402.908H334.518L322.562 401.883ZM321.62 413.03L333.576 414.055L333.578 414.041L333.579 414.027L321.62 413.03ZM320.678 423.863L308.725 422.808L308.709 422.983L308.699 423.158L320.678 423.863ZM320.05 433.283L332.015 434.203L320.05 433.283ZM319.422 440.034L307.504 438.632L307.463 438.98L307.443 439.329L319.422 440.034ZM319.265 442.86L331.224 443.857L331.265 443.359V442.86H319.265ZM318.48 445.372L309.995 436.887L309.995 436.887L318.48 445.372ZM298.227 442.075L288.892 449.615L289.051 449.812L289.219 450.003L298.227 442.075ZM295.087 425.276L283.129 424.279L283.108 424.528L283.098 424.776L295.087 425.276ZM295.715 416.327L283.762 415.272L283.747 415.436L283.737 415.601L295.715 416.327ZM296.657 404.552L308.625 405.428L296.657 404.552ZM297.599 391.678L309.567 392.554L310.509 379.678H297.599V391.678ZM288.65 386.34L300.624 387.138L300.625 387.113L300.627 387.089L288.65 386.34ZM288.964 381.473L277.006 380.476L276.997 380.576L276.991 380.675L288.964 381.473ZM289.435 377.705L277.742 375.007L277.659 375.367L277.598 375.732L289.435 377.705ZM290.848 374.251L281.017 367.369L280.939 367.481L280.864 367.595L290.848 374.251ZM293.988 371.739L299.017 382.635L299.352 382.48L299.677 382.305L293.988 371.739ZM299.326 370.483L299.897 382.469L310.237 381.977L311.267 371.677L299.326 370.483ZM299.954 364.203L311.895 365.397L311.899 365.352L311.903 365.306L299.954 364.203ZM303.722 347.09L292.705 342.333L292.659 342.439L292.616 342.546L303.722 347.09ZM311.415 336.1L319.274 345.168L319.359 345.095L319.443 345.02L311.415 336.1ZM322.562 330.134L325.672 341.724L325.765 341.699L325.859 341.672L322.562 330.134ZM350.508 329.663L347.52 341.285L347.559 341.295L347.598 341.305L350.508 329.663ZM359.614 333.588L352.556 343.293L352.556 343.293L359.614 333.588ZM361.027 358.551L354.371 348.566L354.299 348.614L354.229 348.662L361.027 358.551ZM344.071 361.691L337.897 371.981L339.027 372.659L340.276 373.075L344.071 361.691ZM331.825 350.544L324.016 341.433L324.016 341.433L331.825 350.544ZM328.214 355.568L339.059 360.705L339.109 360.599L339.157 360.492L328.214 355.568ZM326.016 362.476L314.249 360.123L314.204 360.351L314.167 360.58L326.016 362.476ZM324.917 370.483L312.996 369.108L311.453 382.483H324.917V370.483ZM345.484 372.681L357.451 373.567L357.484 373.125V372.681H345.484ZM344.856 381.159L332.889 380.273L332.886 380.317L332.883 380.361L344.856 381.159ZM342.187 388.852L332.769 381.416L332.742 381.45L332.715 381.485L342.187 388.852ZM311.374 390.88C311.17 393.933 310.915 397.258 310.606 400.858L334.518 402.908C334.838 399.181 335.105 395.703 335.321 392.476L311.374 390.88ZM310.606 400.858C310.291 404.531 309.976 408.256 309.662 412.033L333.579 414.027C333.892 410.268 334.205 406.561 334.518 402.908L310.606 400.858ZM309.664 412.005C309.351 415.659 309.038 419.26 308.725 422.808L332.632 424.918C332.947 421.349 333.261 417.728 333.576 414.055L309.664 412.005ZM308.699 423.158C308.493 426.665 308.288 429.731 308.085 432.363L332.015 434.203C332.231 431.392 332.445 428.178 332.657 424.568L308.699 423.158ZM308.085 432.363C307.883 434.997 307.688 437.072 307.504 438.632L331.34 441.436C331.575 439.437 331.799 437.012 332.015 434.203L308.085 432.363ZM307.443 439.329C307.36 440.74 307.265 442.288 307.265 442.86H331.265C331.265 443.048 331.26 443.191 331.26 443.205C331.259 443.249 331.257 443.277 331.257 443.281C331.257 443.29 331.257 443.275 331.26 443.224C331.265 443.126 331.273 442.968 331.286 442.741C331.311 442.289 331.349 441.625 331.401 440.739L307.443 439.329ZM307.307 441.863C307.299 441.96 307.319 441.548 307.537 440.851C307.727 440.241 308.331 438.551 309.995 436.887L326.965 453.857C329.048 451.775 329.992 449.456 330.444 448.009C330.924 446.474 331.127 445.016 331.224 443.857L307.307 441.863ZM309.995 436.887C312.001 434.88 314.111 434.313 314.75 434.162C315.529 433.979 315.969 434 315.811 434V458C317.014 458 318.58 457.916 320.247 457.524C321.777 457.164 324.541 456.282 326.965 453.857L309.995 436.887ZM315.811 434H310.159V458H315.811V434ZM310.159 434C308.192 434 307.126 433.764 306.687 433.62C306.319 433.499 306.715 433.555 307.236 434.147L289.219 450.003C294.889 456.447 303.151 458 310.159 458V434ZM307.562 434.535C307.79 434.816 306.93 433.955 306.93 429.986H282.93C282.93 436.693 284.268 443.891 288.892 449.615L307.562 434.535ZM306.93 429.986C306.93 429.988 306.93 429.98 306.93 429.962C306.93 429.945 306.931 429.92 306.931 429.888C306.932 429.823 306.934 429.736 306.937 429.624C306.942 429.4 306.95 429.106 306.963 428.737C306.987 427.999 307.025 427.015 307.077 425.776L283.098 424.776C282.997 427.195 282.93 429.051 282.93 429.986H306.93ZM307.046 426.273C307.265 423.644 307.48 420.567 307.693 417.053L283.737 415.601C283.531 418.995 283.328 421.884 283.129 424.279L307.046 426.273ZM307.669 417.382C307.989 413.753 308.308 409.767 308.625 405.428L284.689 403.676C284.379 407.92 284.069 411.784 283.762 415.272L307.669 417.382ZM308.625 405.428C308.939 401.136 309.253 396.845 309.567 392.554L285.631 390.802C285.317 395.094 285.003 399.385 284.689 403.676L308.625 405.428ZM297.599 379.678H290.22V403.678H297.599V379.678ZM290.22 379.678C291.494 379.678 294.654 380.005 297.41 382.761C300.167 385.517 300.493 388.677 300.493 389.951H276.493C276.493 392.376 277.108 396.4 280.44 399.732C283.772 403.064 287.795 403.678 290.22 403.678V379.678ZM300.493 389.951C300.493 389.518 300.524 388.63 300.624 387.138L276.677 385.542C276.567 387.19 276.493 388.709 276.493 389.951H300.493ZM300.627 387.089C300.73 385.429 300.834 383.824 300.938 382.271L276.991 380.675C276.885 382.262 276.779 383.901 276.673 385.591L300.627 387.089ZM300.923 382.47C301 381.544 301.116 380.613 301.272 379.678L277.598 375.732C277.336 377.309 277.138 378.89 277.006 380.476L300.923 382.47ZM301.128 380.403C301.189 380.136 301.172 380.399 300.833 380.907L280.864 367.595C279.269 369.987 278.309 372.553 277.742 375.007L301.128 380.403ZM300.679 381.133C299.998 382.105 299.247 382.528 299.017 382.635L288.959 360.843C286.008 362.206 283.164 364.303 281.017 367.369L300.679 381.133ZM299.677 382.305C299.28 382.519 299.046 382.567 299.092 382.557C299.111 382.552 299.184 382.536 299.322 382.518C299.459 382.5 299.649 382.481 299.897 382.469L298.755 358.497C295.473 358.653 291.761 359.309 288.299 361.173L299.677 382.305ZM311.267 371.677L311.895 365.397L288.014 363.009L287.386 369.289L311.267 371.677ZM311.903 365.306C312.46 359.277 313.527 354.816 314.829 351.634L292.616 342.546C290.15 348.574 288.704 355.522 288.005 363.1L311.903 365.306ZM314.739 351.847C316.158 348.56 317.751 346.489 319.274 345.168L303.556 327.032C298.799 331.154 295.263 336.41 292.705 342.333L314.739 351.847ZM319.443 345.02C321.104 343.525 323.11 342.411 325.672 341.724L319.453 318.544C313.432 320.159 308.007 323.023 303.388 327.18L319.443 345.02ZM325.859 341.672C329.021 340.769 332.758 340.25 337.163 340.25V316.25C330.892 316.25 324.895 316.987 319.265 318.596L325.859 341.672ZM337.163 340.25C341.743 340.25 345.125 340.669 347.52 341.285L353.497 318.041C348.565 316.773 343.05 316.25 337.163 316.25V340.25ZM347.598 341.305C350.381 342.001 351.863 342.789 352.556 343.293L366.672 323.883C362.76 321.038 358.171 319.209 353.419 318.021L347.598 341.305ZM352.556 343.293C353.397 343.904 353.628 344.332 353.714 344.52L375.563 334.588C373.555 330.171 370.437 326.621 366.672 323.883L352.556 343.293ZM353.714 344.52C354.027 345.209 354.208 345.969 354.208 346.933H378.208C378.208 342.664 377.343 338.505 375.563 334.588L353.714 344.52ZM354.208 346.933C354.208 348.429 353.966 349.004 353.953 349.032C353.952 349.034 353.995 348.943 354.101 348.817C354.208 348.689 354.314 348.604 354.371 348.566L367.684 368.536C375.488 363.333 378.208 354.996 378.208 346.933H354.208ZM354.229 348.662C353.554 349.126 351.67 350.005 347.368 350.005V374.005C354.58 374.005 361.802 372.581 367.826 368.439L354.229 348.662ZM347.368 350.005C347.106 350.005 346.902 350.001 346.749 349.995C346.594 349.989 346.517 349.982 346.504 349.981C346.486 349.979 346.587 349.987 346.777 350.022C346.876 350.04 347.017 350.068 347.191 350.111C347.364 350.153 347.593 350.216 347.866 350.307L340.276 373.075C342.935 373.961 345.793 374.005 347.368 374.005V350.005ZM350.245 351.401C352.433 352.714 353.823 354.601 354.559 356.369C355.224 357.964 355.286 359.262 355.286 359.807H331.286C331.286 362.521 332.067 368.483 337.897 371.981L350.245 351.401ZM355.286 359.807C355.286 355.819 354.947 351.702 353.787 348.029L330.901 355.257C330.997 355.561 331.286 356.887 331.286 359.807H355.286ZM353.787 348.029C352.615 344.316 350.163 341.078 346.565 339.006C343.275 337.112 339.847 336.66 337.163 336.66V360.66C337.305 360.66 336.154 360.705 334.59 359.805C332.72 358.728 331.446 356.981 330.901 355.257L353.787 348.029ZM337.163 336.66C332.467 336.66 327.846 338.149 324.016 341.433L339.635 359.655C339.269 359.969 338.792 360.256 338.252 360.447C337.727 360.632 337.329 360.66 337.163 360.66V336.66ZM324.016 341.433C320.981 344.034 318.802 347.243 317.271 350.644L339.157 360.492C339.511 359.707 339.739 359.566 339.635 359.655L324.016 341.433ZM317.369 350.431C315.93 353.47 314.926 356.74 314.249 360.123L337.783 364.829C338.153 362.979 338.615 361.643 339.059 360.705L317.369 350.431ZM314.167 360.58C313.72 363.375 313.33 366.218 312.996 369.108L336.838 371.858C337.133 369.305 337.475 366.81 337.865 364.372L314.167 360.58ZM324.917 382.483H342.972V358.483H324.917V382.483ZM342.972 382.483C342.324 382.483 339.597 382.376 336.954 380.063C334.005 377.483 333.484 374.246 333.484 372.681H357.484C357.484 369.651 356.544 365.315 352.758 362.002C349.278 358.956 345.295 358.483 342.972 358.483V382.483ZM333.517 371.795L332.889 380.273L356.823 382.045L357.451 373.567L333.517 371.795ZM332.883 380.361C332.838 381.028 332.738 381.38 332.695 381.504C332.658 381.61 332.666 381.547 332.769 381.416L351.606 396.288C355.007 391.979 356.498 386.927 356.83 381.957L332.883 380.361ZM332.715 381.485C333.953 379.893 335.267 379.495 335.271 379.494C335.298 379.485 335.133 379.537 334.713 379.588C334.299 379.638 333.712 379.678 332.924 379.678V403.678C338.063 403.678 346.473 402.888 351.659 396.219L332.715 381.485ZM332.924 379.678H323.347V403.678H332.924V379.678ZM395.437 380.845V368.845H384.347L383.474 379.901L395.437 380.845ZM394.338 392.62L382.408 391.33L382.39 391.49L382.377 391.65L394.338 392.62ZM393.396 403.61L405.347 404.696L393.396 403.61ZM392.611 412.873L380.646 411.953L380.629 412.182L380.62 412.412L392.611 412.873ZM393.396 424.648L383.411 431.304L383.596 431.582L383.796 431.848L393.396 424.648ZM401.874 423.863L408.849 433.628L408.849 433.628L401.874 423.863ZM403.758 422.45L397.102 412.465L396.668 412.754L396.262 413.08L403.758 422.45ZM407.84 423.078L398.24 430.278V430.278L407.84 423.078ZM404.072 442.546L395.318 434.339L404.072 442.546ZM371.102 442.389L362.617 450.874L362.742 450.999L362.87 451.12L371.102 442.389ZM365.921 420.723L353.975 419.585L353.95 419.854L353.936 420.124L365.921 420.723ZM366.706 412.245L378.657 413.331V413.331L366.706 412.245ZM367.805 399.528L355.87 398.285L355.857 398.408L355.847 398.531L367.805 399.528ZM369.375 380.845L381.345 381.688L382.25 368.845H369.375V380.845ZM359.484 380.374L347.842 383.284L348.347 385.301L349.5 387.03L359.484 380.374ZM359.327 378.647L347.348 377.942L347.327 378.294V378.647H359.327ZM359.798 370.64L347.833 369.72L347.825 369.827L347.819 369.935L359.798 370.64ZM360.269 366.715L348.576 364.017L348.493 364.377L348.432 364.742L360.269 366.715ZM361.839 363.104L352.469 355.608L352.229 355.908L352.008 356.222L361.839 363.104ZM365.293 360.592L370.02 371.622L365.293 360.592ZM371.102 359.65V371.65H379.311L382.286 363.999L371.102 359.65ZM373.614 352.899L362.323 348.834L373.614 352.899ZM376.44 345.363L387.615 349.736L387.646 349.656L387.676 349.576L376.44 345.363ZM379.109 339.083L368.65 333.2L368.507 333.455L368.376 333.716L379.109 339.083ZM395.28 340.653L385.06 346.942V346.942L395.28 340.653ZM397.321 359.65L385.356 358.73L384.363 371.65H397.321V359.65ZM416.318 361.848L428.285 362.734L428.318 362.292V361.848H416.318ZM415.69 370.326L403.723 369.44L403.72 369.484L403.717 369.528L415.69 370.326ZM413.021 378.019L403.603 370.583L403.576 370.617L403.549 370.652L413.021 378.019ZM383.474 379.901C383.169 383.765 382.814 387.575 382.408 391.33L406.269 393.91C406.7 389.919 407.077 385.879 407.4 381.789L383.474 379.901ZM382.377 391.65C382.066 395.489 381.755 399.113 381.445 402.524L405.347 404.696C405.665 401.199 405.982 397.497 406.299 393.59L382.377 391.65ZM381.445 402.524C381.128 406.019 380.861 409.163 380.646 411.953L404.576 413.793C404.78 411.14 405.037 408.109 405.347 404.696L381.445 402.524ZM380.62 412.412C380.513 415.181 380.454 417.455 380.454 419.153H404.454C404.454 417.92 404.499 416.008 404.602 413.334L380.62 412.412ZM380.454 419.153C380.454 420.911 380.551 422.78 380.862 424.595C381.143 426.236 381.756 428.821 383.411 431.304L403.381 417.992C403.943 418.835 404.221 419.547 404.347 419.916C404.477 420.3 404.516 420.533 404.517 420.54C404.52 420.558 404.502 420.455 404.485 420.202C404.467 419.953 404.454 419.608 404.454 419.153H380.454ZM383.796 431.848C387.508 436.797 392.903 437.904 396.536 437.904V413.904C396.894 413.904 397.86 413.949 399.109 414.448C400.466 414.991 401.888 415.97 402.996 417.448L383.796 431.848ZM396.536 437.904C399.13 437.904 402.043 437.431 404.886 436.009L394.153 414.543C395.321 413.959 396.245 413.904 396.536 413.904V437.904ZM404.886 436.009C406.261 435.321 407.587 434.53 408.849 433.628L394.899 414.098C394.696 414.243 394.452 414.393 394.153 414.543L404.886 436.009ZM408.849 433.628C409.703 433.018 410.515 432.412 411.254 431.82L396.262 413.08C395.955 413.325 395.51 413.662 394.899 414.098L408.849 433.628ZM410.415 432.435C409.134 433.288 407.51 433.822 405.799 433.822V409.822C402.623 409.822 399.638 410.775 397.102 412.465L410.415 432.435ZM405.799 433.822C401.321 433.822 398.852 431.094 398.24 430.278L417.44 415.878C415.572 413.388 411.743 409.822 405.799 409.822V433.822ZM398.24 430.278C397.803 429.695 397.503 429.165 397.303 428.759C397.101 428.351 396.971 428.01 396.89 427.771C396.808 427.53 396.76 427.347 396.736 427.242C396.723 427.188 396.714 427.146 396.709 427.12C396.704 427.094 396.701 427.08 396.701 427.079C396.701 427.078 396.703 427.088 396.706 427.11C396.709 427.132 396.713 427.164 396.717 427.207C396.726 427.293 396.737 427.414 396.747 427.573C396.767 427.895 396.782 428.328 396.782 428.887H420.782C420.782 427.034 420.692 425.085 420.392 423.237C420.151 421.753 419.544 418.684 417.44 415.878L398.24 430.278ZM396.782 428.887C396.782 432.404 395.878 433.741 395.318 434.339L412.827 450.753C418.546 444.653 420.782 436.884 420.782 428.887H396.782ZM395.318 434.339C395.46 434.187 395.277 434.493 394.114 434.854C392.898 435.232 390.911 435.57 387.901 435.57V459.57C396.753 459.57 406.296 457.719 412.827 450.753L395.318 434.339ZM387.901 435.57C381.935 435.57 379.882 434.175 379.334 433.658L362.87 451.12C369.649 457.511 378.795 459.57 387.901 459.57V435.57ZM379.587 433.904C379.102 433.419 377.764 431.649 377.764 426.218H353.764C353.764 435.231 355.985 444.242 362.617 450.874L379.587 433.904ZM377.764 426.218C377.764 424.901 377.808 423.277 377.906 421.322L353.936 420.124C353.825 422.355 353.764 424.395 353.764 426.218H377.764ZM377.867 421.861C378.079 419.639 378.342 416.794 378.657 413.331L354.755 411.159C354.442 414.604 354.182 417.411 353.975 419.585L377.867 421.861ZM378.657 413.331C378.974 409.837 379.344 405.566 379.764 400.525L355.847 398.531C355.429 403.538 355.066 407.745 354.755 411.159L378.657 413.331ZM379.741 400.771C380.283 395.568 380.817 389.197 381.345 381.688L357.405 380.002C356.887 387.356 356.374 393.44 355.87 398.285L379.741 400.771ZM369.375 368.845H361.054V392.845H369.375V368.845ZM361.054 368.845C361.252 368.845 362.197 368.848 363.482 369.233C364.727 369.607 367.461 370.705 369.469 373.718L349.5 387.03C351.717 390.357 354.817 391.691 356.585 392.221C358.393 392.764 360.019 392.845 361.054 392.845V368.845ZM371.126 377.464C371.264 378.015 371.305 378.407 371.317 378.542C371.331 378.696 371.327 378.741 371.327 378.647H347.327C347.327 379.781 347.391 381.481 347.842 383.284L371.126 377.464ZM371.306 379.352L371.777 371.345L347.819 369.935L347.348 377.942L371.306 379.352ZM371.763 371.56C371.842 370.527 371.959 369.571 372.106 368.688L348.432 364.742C348.161 366.371 347.963 368.031 347.833 369.72L371.763 371.56ZM371.962 369.413C371.964 369.403 371.951 369.464 371.902 369.576C371.852 369.691 371.777 369.833 371.67 369.986L352.008 356.222C350.313 358.644 349.204 361.295 348.576 364.017L371.962 369.413ZM371.21 370.6C370.919 370.963 370.625 371.224 370.389 371.396C370.159 371.563 370.015 371.624 370.02 371.622L360.566 349.562C357.629 350.821 354.753 352.752 352.469 355.608L371.21 370.6ZM370.02 371.622C369.676 371.769 369.55 371.766 369.765 371.731C369.975 371.697 370.403 371.65 371.102 371.65V347.65C367.819 347.65 364.087 348.053 360.566 349.562L370.02 371.622ZM382.286 363.999C383.066 361.993 383.94 359.643 384.905 356.964L362.323 348.834C361.404 351.388 360.603 353.539 359.918 355.301L382.286 363.999ZM384.905 356.964C385.812 354.443 386.716 352.034 387.615 349.736L365.265 340.99C364.28 343.507 363.3 346.122 362.323 348.834L384.905 356.964ZM387.676 349.576C388.528 347.305 389.254 345.627 389.842 344.45L368.376 333.716C367.29 335.888 366.236 338.397 365.204 341.15L387.676 349.576ZM389.568 344.966C389.791 344.569 389.612 345.002 388.929 345.684C388.426 346.187 385.921 348.571 381.621 348.571V324.571C376.588 324.571 373.299 327.373 371.958 328.714C370.438 330.234 369.369 331.922 368.65 333.2L389.568 344.966ZM381.621 348.571H386.174V324.571H381.621V348.571ZM386.174 348.571C387.198 348.571 387.277 348.738 386.839 348.542C386.6 348.434 386.265 348.243 385.91 347.935C385.551 347.625 385.266 347.276 385.06 346.942L405.5 334.364C400.862 326.828 392.996 324.571 386.174 324.571V348.571ZM385.06 346.942C385.377 347.456 385.792 348.437 385.792 350.387H409.792C409.792 344.801 408.533 339.292 405.5 334.364L385.06 346.942ZM385.792 350.387C385.792 352.007 385.665 354.724 385.356 358.73L409.286 360.57C409.606 356.412 409.792 352.954 409.792 350.387H385.792ZM397.321 371.65H413.806V347.65H397.321V371.65ZM413.806 371.65C413.158 371.65 410.431 371.543 407.788 369.23C404.839 366.65 404.318 363.413 404.318 361.848H428.318C428.318 358.818 427.378 354.481 423.592 351.169C420.112 348.123 416.129 347.65 413.806 347.65V371.65ZM404.351 360.962L403.723 369.44L427.657 371.212L428.285 362.734L404.351 360.962ZM403.717 369.528C403.672 370.195 403.572 370.547 403.529 370.671C403.492 370.777 403.5 370.714 403.603 370.583L422.44 385.455C425.841 381.146 427.332 376.094 427.664 371.124L403.717 369.528ZM403.549 370.652C404.787 369.06 406.1 368.662 406.105 368.661C406.132 368.652 405.967 368.704 405.547 368.755C405.133 368.805 404.546 368.845 403.758 368.845V392.845C408.897 392.845 417.307 392.055 422.493 385.386L403.549 370.652ZM403.758 368.845H395.437V392.845H403.758V368.845Z" fill="white"/>
<defs>
<filter id="filter0_d_873_10942" x="90.8076" y="67.5032" width="335.461" height="333.993" filterUnits="userSpaceOnUse" color-interpolation-filters="sRGB">
<feFlood flood-opacity="0" result="BackgroundImageFix"/>
<feColorMatrix in="SourceAlpha" type="matrix" values="0 0 0 0 0 0 0 0 0 0 0 0 0 0 0 0 0 0 127 0" result="hardAlpha"/>
<feOffset dy="4"/>
<feGaussianBlur stdDeviation="2"/>
<feComposite in2="hardAlpha" operator="out"/>
<feColorMatrix type="matrix" values="0 0 0 0 0 0 0 0 0 0 0 0 0 0 0 0 0 0 0.1 0"/>
<feBlend mode="normal" in2="BackgroundImageFix" result="effect1_dropShadow_873_10942"/>
<feBlend mode="normal" in="SourceGraphic" in2="effect1_dropShadow_873_10942" result="shape"/>
</filter>
<filter id="filter1_f_873_10942" x="99.6003" y="72.2217" width="317.875" height="316.558" filterUnits="userSpaceOnUse" color-interpolation-filters="sRGB">
<feFlood flood-opacity="0" result="BackgroundImageFix"/>
<feBlend mode="normal" in="SourceGraphic" in2="BackgroundImageFix" result="shape"/>
<feGaussianBlur stdDeviation="6" result="effect1_foregroundBlur_873_10942"/>
</filter>
</defs>
</svg>
