<?xml version="1.0" encoding="utf-8"?>
<!-- Generator: Adobe Illustrator 26.3.1, SVG Export Plug-In . SVG Version: 6.00 Build 0)  -->
<svg version="1.1" id="Layer_1" xmlns:serif="http://www.serif.com/"
	 xmlns="http://www.w3.org/2000/svg" xmlns:xlink="http://www.w3.org/1999/xlink" x="0px" y="0px" viewBox="0 0 100 100"
	 style="enable-background:new 0 0 100 100;" xml:space="preserve">
<style type="text/css">
	.st0{fill-rule:evenodd;clip-rule:evenodd;fill:#F4FFFD;}
</style>
<path class="st0" d="M87.8,0C94.5,0,100,5.5,100,12.2v75.6c0,6.7-5.5,12.2-12.2,12.2H12.2C5.5,100,0,94.5,0,87.8V12.2
	C0,5.5,5.5,0,12.2,0C12.2,0,87.8,0,87.8,0z M89,64.6c0.2-2.7,0-5.3-0.7-7.7c-0.6-2.5-1.6-4.7-3.1-6.6c-1.4-1.9-3.2-3.5-5.4-4.6
	c-2.2-1.2-4.8-1.7-7.7-1.7c-2.7,0-5.1,0.5-7.3,1.4c-2.2,0.9-4.1,2.2-5.6,3.9c-1.6,1.6-2.8,3.6-3.6,5.8c-0.9,2.2-1.3,4.7-1.3,7.3
	c0,2.7,0.4,5.2,1.2,7.4c0.8,2.3,2,4.2,3.5,5.8c1.6,1.6,3.4,2.9,5.6,3.7c2.2,0.9,4.7,1.3,7.4,1.3c3.9,0,7.3-0.9,10.1-2.7
	c2.8-1.8,4.9-4.8,6.2-9H80C79.7,70,78.8,71,77.4,72c-1.4,1-3.1,1.5-5,1.5c-2.7,0-4.8-0.7-6.2-2.1c-1.4-1.4-2.4-4-2.4-6.8
	C63.9,64.6,89,64.6,89,64.6z M34.2,79.7c2.2,0,4.3-0.3,6.3-0.8c2-0.5,3.9-1.4,5.5-2.5c1.6-1.1,2.9-2.6,3.8-4.4
	c0.9-1.8,1.4-3.9,1.4-6.3c0-3-0.7-5.6-2.2-7.7c-1.5-2.1-3.6-3.6-6.6-4.5c2.2-1,3.8-2.4,4.9-4c1.1-1.6,1.6-3.6,1.6-6.1
	c0-2.2-0.4-4.1-1.1-5.6c-0.8-1.5-1.8-2.7-3.1-3.7c-1.4-0.9-3-1.6-4.9-2c-1.9-0.4-4-0.6-6.3-0.6H10.9v48.1
	C10.9,79.7,34.2,79.7,34.2,79.7z M33,58.3c2.3,0,4.1,0.5,5.5,1.6c1.4,1.1,2.1,2.8,2.1,5.3c0,1.3-0.2,2.3-0.6,3.1
	c-0.4,0.8-1,1.4-1.7,1.9c-0.7,0.5-1.5,0.8-2.5,1c-0.9,0.2-1.9,0.3-3,0.3H21.5V58.3H33z M77.2,53.1c-1.1-1.3-3.1-1.9-5.4-1.9
	c-1.5,0-2.8,0.3-3.8,0.8c-1,0.5-1.8,1.2-2.4,1.9c-0.6,0.8-1,1.6-1.3,2.5c-0.2,0.8-0.4,1.6-0.4,2.3h15.5
	C79.2,56.1,78.4,54.3,77.2,53.1z M31.4,39.8c0.9,0,1.8,0.1,2.7,0.2c0.9,0.2,1.7,0.4,2.3,0.8c0.7,0.4,1.2,1,1.6,1.7
	c0.4,0.7,0.6,1.6,0.6,2.8c0,2-0.6,3.5-1.8,4.4c-1.2,0.9-2.8,1.3-4.7,1.3H21.5V39.8C21.5,39.8,31.4,39.8,31.4,39.8z M81.4,39.6v-4.7
	H61.9v4.7H81.4z"/>
</svg>
