<?xml version="1.0" encoding="UTF-8"?><svg id="Layer_1" xmlns="http://www.w3.org/2000/svg" viewBox="0 0 100 100"><defs><style>.cls-1{fill:#f4fffd;fill-rule:evenodd;}</style></defs><path class="cls-1" d="M87.78,0C94.53,0,100,5.47,100,12.22V87.78c0,6.74-5.47,12.22-12.22,12.22H12.22c-6.74,0-12.22-5.47-12.22-12.22V12.22C0,5.47,5.47,0,12.22,0H87.78ZM31.34,82.67V38.59h-14.66v44.09h14.66Zm52.84,0v-25.28c0-13.54-7.23-19.84-16.87-19.84-7.77,0-11.26,4.28-13.21,7.28v-6.24h-14.65c.19,4.14,0,44.09,0,44.09h14.65v-24.62c0-1.32,.09-2.64,.48-3.58,1.06-2.63,3.47-5.36,7.52-5.36,5.3,0,7.42,4.04,7.42,9.97v23.59h14.65ZM24.11,17.33c-5.01,0-8.29,3.3-8.29,7.62s3.18,7.62,8.1,7.62h.09c5.11,0,8.29-3.39,8.29-7.62-.09-4.31-3.17-7.61-8.19-7.62Z"/></svg>