<?xml version="1.0" encoding="UTF-8"?><svg id="Layer_1" xmlns="http://www.w3.org/2000/svg" viewBox="0 0 96.57 14.1"><path d="M0,12.49l1.5-2.98c1.14,.82,2.48,1.27,3.59,1.27,1,0,1.48-.29,1.48-.74C6.57,8.47,.37,8.37,.37,3.99,.37,1.69,2.24,0,5.28,0c1.98,0,3.41,.61,4.75,1.5l-1.45,2.93c-1-.61-2.11-1.11-3.33-1.11-.84,0-1.21,.32-1.21,.69,0,1.61,6.2,1.32,6.2,5.94,0,2.56-1.93,4.14-4.99,4.14-2.03,0-3.85-.58-5.25-1.61Z"/><path d="M16.29,.19V13.91h-3.59V.19h3.59Z"/><path d="M18.82,.19h4.14c2.9,0,7.21,0,7.21,4.91,0,2.53-1.19,3.75-2.72,4.36l3.12,4.46h-4.09l-2.56-3.88h-1.5v3.88h-3.59V.19Zm3.59,3.38v3.3h1.56c1.35,0,2.51,0,2.51-1.66s-1.24-1.64-2.51-1.64h-1.56Z"/><path d="M35.96,.19h4.57l3.99,13.73h-3.72l-.34-1.29h-4.44l-.34,1.29h-3.72L35.96,.19Zm3.64,9.29l-1.37-5.28-1.4,5.28h2.77Z"/><path d="M46.28,7.15c0-4.09,2.96-7.15,6.84-7.15,1.43,0,2.72,.34,3.77,.98l-1.87,3.01c-.5-.29-1.08-.45-1.72-.45-2.03,0-3.33,1.58-3.33,3.59s1.32,3.43,3.27,3.43c.71,0,1.43-.24,2.01-.63l1.87,2.96c-1.14,.77-2.51,1.21-3.99,1.21-4.09,0-6.86-2.88-6.86-6.94Z"/><path d="M58.53,7.15c0-4.09,2.96-7.15,6.84-7.15,1.43,0,2.72,.34,3.78,.98l-1.87,3.01c-.5-.29-1.08-.45-1.72-.45-2.03,0-3.33,1.58-3.33,3.59s1.32,3.43,3.27,3.43c.71,0,1.42-.24,2.01-.63l1.87,2.96c-1.13,.77-2.51,1.21-3.99,1.21-4.09,0-6.86-2.88-6.86-6.94Z"/><path d="M74.48,.19V5.17h4.07V.19h3.59V13.91h-3.59v-5.31h-4.07v5.31h-3.59V.19h3.59Z"/><path d="M88.02,.19h4.57l3.99,13.73h-3.72l-.34-1.29h-4.43l-.34,1.29h-3.72L88.02,.19Zm3.64,9.29l-1.37-5.28-1.4,5.28h2.77Z"/></svg>