<svg width="165" height="28" viewBox="0 0 165 28" fill="none" xmlns="http://www.w3.org/2000/svg">
<path d="M9.22984 27.48C8.01651 27.48 6.89651 27.3867 5.86984 27.2C4.84318 27.0133 3.92318 26.78 3.10984 26.5C2.30984 26.22 1.62984 25.94 1.06984 25.66L0.689844 21.72C1.71651 22.3067 2.92984 22.8267 4.32984 23.28C5.74318 23.7333 7.26984 23.96 8.90984 23.96C10.7765 23.96 12.1498 23.6533 13.0298 23.04C13.9098 22.4133 14.3498 21.4733 14.3498 20.22V19.92C14.3498 19.1067 14.1698 18.44 13.8098 17.92C13.4632 17.3867 12.8698 16.9333 12.0298 16.56C11.1898 16.1733 10.0498 15.8067 8.60984 15.46C6.71651 14.9933 5.18318 14.4467 4.00984 13.82C2.84984 13.18 2.00318 12.3867 1.46984 11.44C0.93651 10.48 0.669844 9.28667 0.669844 7.86V7.66C0.669844 5.51333 1.38318 3.86 2.80984 2.7C4.23651 1.54 6.37651 0.959999 9.22984 0.959999C11.0565 0.959999 12.6165 1.14 13.9098 1.5C15.2165 1.84667 16.2898 2.24 17.1298 2.68L17.4898 6.34C16.5165 5.78 15.3965 5.31333 14.1298 4.94C12.8632 4.55333 11.4365 4.36 9.84984 4.36C8.60984 4.36 7.61651 4.5 6.86984 4.78C6.12318 5.04667 5.58318 5.44 5.24984 5.96C4.91651 6.46667 4.74984 7.08 4.74984 7.8V7.88C4.74984 8.62667 4.91651 9.26667 5.24984 9.8C5.58318 10.3333 6.16984 10.8067 7.00984 11.22C7.86318 11.62 9.06984 12.02 10.6298 12.42C12.4832 12.8867 13.9765 13.4133 15.1098 14C16.2565 14.5733 17.0965 15.3267 17.6298 16.26C18.1632 17.18 18.4298 18.3933 18.4298 19.9V20.3C18.4298 22.66 17.6632 24.4467 16.1298 25.66C14.5965 26.8733 12.2965 27.48 9.22984 27.48ZM26.9464 1.44V27H22.9264V1.44H26.9464ZM51.533 27H47.373L46.693 21.82C46.573 20.8733 46.3596 20.0667 46.053 19.4C45.7596 18.72 45.2996 18.1933 44.673 17.82C44.0463 17.4467 43.173 17.26 42.053 17.26L35.393 17.24V14.08L42.473 14.06C44.113 14.06 45.2863 13.6667 45.993 12.88C46.6996 12.0933 47.053 11 47.053 9.6V9.04C47.053 7.66667 46.693 6.60667 45.973 5.86C45.253 5.11333 44.0596 4.74 42.393 4.74H35.313V1.44H42.953C45.793 1.44 47.8596 2.04666 49.153 3.26C50.4596 4.47333 51.113 6.16667 51.113 8.34V8.98C51.113 10.5933 50.7396 11.9133 49.993 12.94C49.2596 13.9667 48.0263 14.6133 46.293 14.88V15.4L44.613 14.82C46.093 14.9267 47.233 15.2467 48.033 15.78C48.8463 16.3133 49.4396 17.0467 49.813 17.98C50.1863 18.9133 50.473 20.0467 50.673 21.38L51.533 27ZM36.593 27H32.633V1.44H36.573V15.18L36.593 16.68V27ZM57.9352 27H53.8752L61.7152 1.44H67.9352L75.7752 27H71.7152L65.0752 4.12H64.5752L57.9352 27ZM70.6152 19.86H58.9952V16.54H70.6152V19.86ZM87.6067 27.5C84.3401 27.5 81.8934 26.5933 80.2667 24.78C78.6534 22.9667 77.8467 20.3867 77.8467 17.04V11.36C77.8467 8.02667 78.6534 5.46 80.2667 3.66C81.8934 1.84667 84.3401 0.939998 87.6067 0.939998C88.6067 0.939998 89.5201 1.02666 90.3467 1.2C91.1734 1.37333 91.9134 1.6 92.5667 1.88C93.2201 2.16 93.7801 2.45333 94.2467 2.76L94.5667 6.44C93.7801 5.90667 92.8667 5.44 91.8267 5.04C90.7867 4.64 89.5601 4.44 88.1467 4.44C86.0934 4.44 84.5401 5.04667 83.4867 6.26C82.4467 7.47333 81.9267 9.19333 81.9267 11.42V16.9C81.9267 19.1133 82.4534 20.8333 83.5067 22.06C84.5734 23.2867 86.1601 23.9 88.2667 23.9C89.6534 23.9 90.8801 23.7067 91.9467 23.32C93.0267 22.92 93.9667 22.4333 94.7667 21.86L94.4467 25.64C93.9801 25.9467 93.4067 26.2467 92.7267 26.54C92.0601 26.82 91.2934 27.0467 90.4267 27.22C89.5734 27.4067 88.6334 27.5 87.6067 27.5ZM107.529 27.5C104.262 27.5 101.815 26.5933 100.189 24.78C98.5753 22.9667 97.7686 20.3867 97.7686 17.04V11.36C97.7686 8.02667 98.5753 5.46 100.189 3.66C101.815 1.84667 104.262 0.939998 107.529 0.939998C108.529 0.939998 109.442 1.02666 110.269 1.2C111.095 1.37333 111.835 1.6 112.489 1.88C113.142 2.16 113.702 2.45333 114.169 2.76L114.489 6.44C113.702 5.90667 112.789 5.44 111.749 5.04C110.709 4.64 109.482 4.44 108.069 4.44C106.015 4.44 104.462 5.04667 103.409 6.26C102.369 7.47333 101.849 9.19333 101.849 11.42V16.9C101.849 19.1133 102.375 20.8333 103.429 22.06C104.495 23.2867 106.082 23.9 108.189 23.9C109.575 23.9 110.802 23.7067 111.869 23.32C112.949 22.92 113.889 22.4333 114.689 21.86L114.369 25.64C113.902 25.9467 113.329 26.2467 112.649 26.54C111.982 26.82 111.215 27.0467 110.349 27.22C109.495 27.4067 108.555 27.5 107.529 27.5ZM123.098 1.44V27H119.078V1.44H123.098ZM138.478 1.44V27H134.458V1.44H138.478ZM121.378 15.52V12.16H136.018V15.52H121.378ZM146.216 27H142.156L149.996 1.44H156.216L164.056 27H159.996L153.356 4.12H152.856L146.216 27ZM158.896 19.86H147.276V16.54H158.896V19.86Z" fill="#F4FFFD"/>
</svg>
