<?xml version="1.0" encoding="UTF-8"?><svg id="svg1392" xmlns="http://www.w3.org/2000/svg" viewBox="0 0 654.44 612.03"><defs><style>.cls-1{fill:none;stroke:#011936;stroke-width:30.66px;}.cls-2{fill:#f4fffd;stroke:#fff;stroke-width:3.41px;}</style></defs><g id="g8564" transform="translate(-58.515,-15.604444)"><g id="g1402"><path id="path1404" class="cls-2" d="M140.87,32.94c-41.34,0-64.57,21.37-64.57,65.04v450.12c0,40.84,20.89,62.23,62.19,62.23h452.02c41.3,0,62.23-20.32,62.23-62.23V97.98c0-42.6-20.92-65.04-63.52-65.04,0,0-448.49-.14-448.35,0Z"/></g><g id="g1406"><path id="path1408" class="cls-1" d="M569.37,461.47V160.66H160.66V461.47h408.71Z"/><path id="path1412" class="cls-1" d="M164.46,164.49l176.32,178.67c13.07,13.17,36.85,13.01,49.64,.12l176.2-177.35"/><path id="path1414" class="cls-1" d="M170.51,451.57l135.1-138.11"/><path id="path1416" class="cls-1" d="M557.97,449.97l-131.45-134.6"/></g></g></svg>